<svg width="337" height="337" viewBox="0 0 337 337" fill="none" xmlns="http://www.w3.org/2000/svg">
<rect x="12" y="12" width="313" height="313" fill="white"/>
<mask id="mask0_2_42" style="mask-type:alpha" maskUnits="userSpaceOnUse" x="12" y="12" width="313" height="313">
<rect x="12" y="12" width="313" height="313" fill="#C4C4C4"/>
</mask>
<g mask="url(#mask0_2_42)">
<path d="M38.89 197.4C38.89 197.4 133.39 30.9 281.59 74.89C294.59 84.02 293.02 103.43 275.67 107.21C255.67 103.41 215.36 83.59 158.04 130.34C207.04 159.42 191.27 205.06 240.36 201.98C276.72 192.69 306.24 165.84 353.73 165.38C353.73 165.38 425.49 170.14 431.82 231.75C444.82 358.28 240.09 334.21 209.5 328.52C138.42 315.28 131.56 239.75 126.13 230.72C119.73 216.07 103.03 191.72 71.52 218.86C61.75 237.76 19.28 226.06 38.89 197.4Z" fill="#231815" stroke="#231815" stroke-miterlimit="10"/>
<path d="M301.48 193.2C301.48 193.2 325.79 180.67 340.25 185.2C346.12 188.37 350.74 218.07 350.74 218.07L335.37 228.46C335.37 228.46 298.55 223.03 296.6 220.4C294.65 217.77 299.29 193.59 301.48 193.2Z" fill="white" stroke="#231815" stroke-miterlimit="10"/>
<path d="M244.89 214.29C244.89 214.29 277.34 204.29 288.1 198.39C293.1 197.8 275.47 238.55 275.47 238.55C275.47 238.55 259.33 255.24 250.53 252.87C241.73 250.5 244.89 214.29 244.89 214.29Z" fill="white" stroke="#231815" stroke-miterlimit="10"/>
<path d="M203.2 201.81C205.45 200.99 226.79 212.72 232.64 214.3C234.77 220.23 234.33 233.58 235.35 240.35C236.02 244.84 200.94 202.63 203.2 201.81Z" fill="white" stroke="#231815" stroke-miterlimit="10"/>
<path d="M293.21 228.85C295.47 228.02 324.8 237.23 333.59 240.69C331.79 248.59 312.97 276.92 303.02 270.81C303.28 267.67 290.81 232.33 293.21 228.85Z" fill="white" stroke="#231815" stroke-miterlimit="10"/>
<path d="M142.89 147.47C142.892 150.315 142.05 153.097 140.471 155.463C138.891 157.829 136.646 159.674 134.018 160.763C131.39 161.853 128.497 162.139 125.707 161.584C122.917 161.03 120.353 159.66 118.342 157.648C116.33 155.637 114.96 153.073 114.406 150.283C113.851 147.493 114.137 144.6 115.226 141.972C116.316 139.344 118.161 137.099 120.527 135.519C122.893 133.94 125.675 133.098 128.52 133.1C132.33 133.103 135.984 134.617 138.678 137.312C141.372 140.006 142.887 143.66 142.89 147.47V147.47Z" fill="white" stroke="#231815" stroke-miterlimit="10"/>
<path d="M263.66 258.08C263.66 258.08 278.55 244.55 284.86 245C288.93 247.71 292.53 268.46 292.53 268.46C291.18 272.97 280.89 269.94 263.66 258.08Z" fill="white" stroke="#231815" stroke-miterlimit="10"/>
</g>
<rect x="8.5" y="8.5" width="320" height="320" stroke="#231815" stroke-width="17"/>
</svg>
