<svg width="337" height="337" viewBox="0 0 337 337" fill="none" xmlns="http://www.w3.org/2000/svg">
<circle cx="168.5" cy="168.5" r="168.5" fill="white"/>
<mask id="mask0_2_3" style="mask-type:alpha" maskUnits="userSpaceOnUse" x="0" y="0" width="337" height="337">
<circle cx="168.5" cy="168.5" r="168.5" fill="#C4C4C4"/>
</mask>
<g mask="url(#mask0_2_3)">
<path d="M52.6531 191.409C52.6531 191.409 138.706 39.6494 273.659 79.745C285.497 88.0667 284.067 105.758 268.268 109.204C250.056 105.74 213.349 87.6748 161.153 130.286C205.773 156.792 191.412 198.391 236.114 195.584C269.224 187.116 296.105 162.643 339.35 162.224C339.35 162.224 404.696 166.563 410.46 222.718C422.298 338.047 235.868 316.107 208.013 310.921C143.286 298.853 137.04 230.01 132.095 221.779C126.267 208.426 111.06 186.232 82.3664 210.969C73.4697 228.196 34.796 217.532 52.6531 191.409Z" fill="#231815" stroke="#231815" stroke-miterlimit="10"/>
<path d="M291.771 187.581C291.771 187.581 313.908 176.16 327.075 180.289C332.42 183.179 336.628 210.249 336.628 210.249L322.631 219.72C322.631 219.72 289.103 214.77 287.327 212.373C285.551 209.976 289.776 187.937 291.771 187.581Z" fill="white" stroke="#231815" stroke-miterlimit="10"/>
<path d="M240.239 206.804C240.239 206.804 269.789 197.689 279.587 192.312C284.14 191.774 268.086 228.916 268.086 228.916C268.086 228.916 253.388 244.129 245.375 241.968C237.362 239.808 240.239 206.804 240.239 206.804Z" fill="white" stroke="#231815" stroke-miterlimit="10"/>
<path d="M202.276 195.429C204.325 194.681 223.757 205.373 229.084 206.813C231.024 212.218 230.623 224.386 231.552 230.557C232.162 234.649 200.218 196.176 202.276 195.429Z" fill="white" stroke="#231815" stroke-miterlimit="10"/>
<path d="M284.24 220.075C286.298 219.318 313.006 227.713 321.01 230.867C319.371 238.067 302.234 263.889 293.173 258.32C293.41 255.458 282.054 223.247 284.24 220.075Z" fill="white" stroke="#231815" stroke-miterlimit="10"/>
<path d="M147.357 145.9C147.359 148.493 146.592 151.028 145.154 153.185C143.716 155.342 141.671 157.023 139.277 158.016C136.884 159.009 134.251 159.27 131.71 158.764C129.169 158.259 126.835 157.01 125.003 155.177C123.171 153.343 121.924 151.007 121.419 148.463C120.914 145.92 121.174 143.284 122.166 140.889C123.158 138.493 124.838 136.446 126.993 135.007C129.148 133.567 131.681 132.8 134.271 132.802C137.741 132.804 141.068 134.185 143.521 136.641C145.975 139.096 147.354 142.427 147.357 145.9V145.9Z" fill="white" stroke="#231815" stroke-miterlimit="10"/>
<path d="M257.331 246.717C257.331 246.717 270.89 234.385 276.636 234.795C280.343 237.265 283.621 256.178 283.621 256.178C282.391 260.289 273.021 257.527 257.331 246.717Z" fill="white" stroke="#231815" stroke-miterlimit="10"/>
<circle cx="168.5" cy="168.5" r="160" stroke="black" stroke-width="17"/>
</g>
</svg>
